<?xml version="1.0" standalone="no"?>
<!DOCTYPE svg PUBLIC "-//W3C//DTD SVG 20010904//EN"
 "http://www.w3.org/TR/2001/REC-SVG-20010904/DTD/svg10.dtd">
<svg version="1.0" xmlns="http://www.w3.org/2000/svg"
 width="500.000000pt" height="500.000000pt" viewBox="0 0 500.000000 500.000000"
 preserveAspectRatio="xMidYMid meet">

<g transform="translate(0.000000,500.000000) scale(0.100000,-0.100000)"
fill="#000000" stroke="none">
<path d="M2285 4313 c-206 -32 -369 -113 -525 -259 -216 -204 -330 -498 -306
-787 7 -81 10 -90 39 -117 39 -37 49 -38 41 -5 -8 33 11 55 47 55 15 0 31 5
34 10 13 21 34 8 45 -27 17 -51 29 -63 36 -35 4 14 14 22 29 22 21 0 22 -5 28
-116 6 -108 5 -119 -17 -162 -22 -44 -23 -53 -15 -132 12 -104 14 -110 37
-110 10 0 35 -9 57 -20 60 -31 100 -19 124 36 34 75 117 110 196 80 40 -16
114 -84 141 -131 10 -19 13 -17 46 17 42 45 75 54 150 40 58 -11 61 -10 121
23 34 18 85 36 112 40 44 6 54 12 81 48 32 43 54 95 54 128 0 13 -10 20 -35
25 -19 3 -37 10 -40 14 -3 5 -24 11 -48 15 -61 10 -89 30 -85 63 2 21 11 29
42 37 l40 12 -32 18 c-38 23 -48 46 -30 75 11 17 19 20 47 15 l33 -6 -21 29
c-26 38 -26 44 2 70 31 30 45 28 91 -13 44 -40 51 -40 36 -1 -12 31 -1 60 27
71 22 8 65 -40 90 -102 20 -48 24 -50 58 -27 32 21 65 10 65 -22 0 -13 -9 -47
-20 -76 -11 -29 -20 -66 -20 -81 0 -15 -7 -41 -15 -56 -13 -26 -13 -43 2 -149
17 -122 14 -161 -22 -244 -33 -80 185 131 254 244 71 118 113 229 136 362 43
250 -11 476 -142 596 -32 29 -76 61 -98 71 -62 27 -162 42 -241 35 -205 -18
-373 -113 -579 -327 -123 -127 -153 -168 -134 -180 11 -7 9 -13 -11 -29 -14
-11 -29 -20 -33 -20 -9 0 -47 -85 -47 -106 0 -11 18 -14 85 -14 47 0 85 -4 85
-9 0 -19 -32 -32 -116 -47 -87 -15 -90 -16 -132 -65 -40 -46 -73 -61 -86 -40
-3 4 4 37 16 71 20 60 20 65 4 130 -30 128 -13 168 30 70 15 -33 32 -60 38
-60 6 0 23 22 38 49 22 37 26 56 21 81 -5 28 -4 32 13 26 16 -5 28 12 74 102
100 195 239 351 417 468 100 66 164 97 292 140 l94 31 -64 36 c-162 91 -263
118 -459 122 -80 2 -158 1 -175 -2z"/>
<path d="M2863 3284 c-3 -9 2 -41 12 -70 10 -30 16 -56 13 -59 -3 -3 -32 21
-63 55 -61 63 -75 69 -95 45 -14 -16 -5 -31 54 -95 32 -35 45 -60 31 -60 -3 0
-30 14 -60 31 -52 29 -85 33 -85 9 0 -6 30 -30 67 -53 l68 -42 -65 -3 c-108
-5 -107 -35 2 -58 35 -7 79 -17 98 -22 l35 -8 -2 -64 c-1 -51 -9 -78 -37 -134
-20 -39 -40 -89 -46 -112 -16 -65 -72 -105 -148 -103 l-37 0 54 25 c30 13 60
32 67 42 18 23 18 71 -1 78 -24 9 -138 -50 -177 -92 -38 -40 -58 -42 -38 -4
17 31 -1 41 -69 38 -48 -3 -57 -7 -83 -39 -19 -23 -36 -64 -49 -115 -15 -59
-28 -87 -51 -111 l-32 -33 25 -26 c13 -14 37 -33 53 -41 25 -13 33 -13 72 2
24 9 57 33 75 52 30 35 31 40 26 100 -2 35 -1 63 3 63 23 0 44 -45 44 -93 1
-69 -26 -107 -104 -144 -32 -15 -59 -32 -59 -36 -1 -4 19 -30 44 -56 25 -26
45 -51 45 -55 0 -21 -46 1 -94 45 -42 38 -60 49 -76 44 -11 -3 -20 -10 -20
-14 0 -11 78 -82 140 -128 42 -31 67 -61 110 -133 64 -108 131 -173 236 -231
41 -23 76 -45 80 -50 3 -5 -113 -9 -285 -9 -290 0 -291 0 -291 21 0 12 -15 42
-34 68 -18 25 -45 69 -59 97 -48 95 -88 127 -189 148 -41 9 -34 26 11 26 47 0
110 -21 150 -51 27 -20 38 -21 118 -17 103 6 133 18 133 53 0 18 -18 38 -76
82 -119 91 -129 95 -205 101 -82 6 -187 -17 -270 -58 -72 -37 -83 -51 -76 -96
8 -47 26 -67 90 -97 29 -14 79 -47 112 -73 34 -27 84 -65 113 -84 51 -35 63
-50 40 -50 -17 0 -178 -49 -200 -61 -10 -5 -132 -14 -270 -19 -358 -15 -479
-30 -439 -54 51 -32 674 -49 1511 -43 804 6 1078 19 1080 52 1 14 -50 23 -175
30 -60 3 -129 8 -152 11 l-43 5 0 89 c0 69 -4 92 -16 105 -9 9 -22 14 -28 12
-89 -33 -81 -33 -184 1 -53 18 -107 32 -120 32 -40 0 -92 -28 -137 -75 -41
-42 -65 -56 -65 -37 0 5 7 17 15 28 24 32 17 53 -40 113 -52 54 -55 61 -55
107 0 68 -43 136 -105 166 -40 20 -49 21 -81 9 -19 -7 -37 -11 -39 -9 -2 2 8
37 22 78 17 51 25 95 25 137 l-1 61 49 7 c27 4 82 23 122 43 40 20 89 39 108
42 31 4 38 12 65 65 29 59 30 63 32 225 2 181 8 230 41 304 35 79 23 100 -28
51 l-26 -25 -38 80 c-38 78 -60 97 -73 64z m455 -1611 c-25 -60 -26 -60 -246
-55 -63 1 -111 6 -108 11 12 19 236 69 313 70 l53 1 -12 -27z"/>
<path d="M1616 3182 c-2 -4 0 -29 5 -56 5 -27 7 -51 4 -54 -5 -5 -6 -1 -28 63
-17 49 -47 61 -47 18 1 -15 7 -46 15 -68 8 -21 12 -41 10 -43 -4 -5 -64 60
-65 71 0 10 -28 9 -34 -1 -4 -8 65 -120 114 -184 27 -36 26 -52 -16 -138 -40
-84 -50 -145 -39 -244 7 -71 23 -96 60 -96 13 0 54 -16 92 -36 61 -33 78 -37
169 -43 l102 -6 62 -49 c35 -26 86 -59 114 -72 51 -24 110 -31 120 -16 6 10
-85 112 -100 112 -6 0 -19 7 -30 15 -18 14 -16 15 19 9 43 -7 93 10 107 37 6
10 10 42 10 72 0 104 -81 212 -169 224 -36 5 -44 2 -76 -30 -38 -38 -45 -78
-26 -145 5 -17 6 -32 2 -32 -14 0 -28 23 -36 58 -3 17 -10 32 -14 32 -21 0
-79 -25 -99 -43 -41 -37 -176 -31 -189 8 -2 6 21 9 61 7 38 -2 74 1 87 9 l23
12 -29 25 c-25 21 -36 24 -77 19 l-48 -6 16 24 c13 21 15 42 9 123 -6 87 -5
104 13 138 23 46 39 268 18 261 -6 -2 -16 -20 -21 -41 -6 -20 -15 -37 -20 -37
-6 0 -16 25 -24 55 -12 51 -31 71 -45 48z"/>
<path d="M1244 1266 c-3 -8 24 -103 61 -211 54 -154 71 -195 85 -195 27 0 30
22 9 81 -10 30 -40 117 -67 194 -34 98 -54 141 -65 143 -10 2 -20 -3 -23 -12z"/>
<path d="M1730 1265 c-26 -31 -5 -45 70 -45 l70 0 0 -181 0 -180 28 3 27 3 3
178 2 177 59 0 c66 0 94 18 71 45 -18 22 -312 22 -330 0z"/>
<path d="M2395 1268 c-3 -8 -4 -101 -3 -208 l3 -195 116 -3 c101 -2 117 0 123
14 13 33 -12 44 -100 44 l-84 0 -2 178 c-3 175 -3 177 -26 180 -12 2 -24 -3
-27 -10z"/>
<path d="M3113 1264 c-6 -15 23 -107 99 -321 29 -81 51 -103 65 -67 7 18 9 12
-73 242 -55 156 -75 188 -91 146z"/>
<path d="M3659 1242 c-31 -32 -39 -47 -39 -76 0 -80 50 -126 137 -126 61 0 93
-21 93 -60 0 -43 -31 -60 -111 -60 -70 0 -97 -14 -85 -45 4 -12 24 -15 96 -15
85 0 91 2 122 29 30 27 33 35 33 85 0 49 -4 59 -31 87 -26 26 -41 31 -95 36
-72 6 -99 23 -99 63 0 50 17 59 115 62 89 3 90 3 90 28 0 25 -1 25 -93 28
l-94 3 -39 -39z"/>
<path d="M1202 1163 c-16 -31 -92 -259 -92 -277 0 -17 26 -33 37 -23 14 14
102 288 97 302 -8 20 -31 19 -42 -2z"/>
<path d="M3051 1118 c-12 -35 -34 -101 -50 -147 -30 -89 -31 -111 -1 -111 15
0 28 28 64 138 51 153 56 182 27 182 -15 0 -24 -15 -40 -62z"/>
</g>
</svg>
